<svg xmlns="http://www.w3.org/2000/svg" width="32" height="32" viewBox="0 0 32 32" fill="none">
<circle cx="16" cy="16" r="16" fill="#2B2B2B"/>
<path d="M21.496 11.4V9.888C21.496 9.2 21.16 8.856 20.488 8.856H20.128C19.472 8.856 19.144 9.2 19.144 9.888V12.744C19.144 13.064 19.208 13.28 19.336 13.392C19.464 13.504 19.672 13.648 19.96 13.824L22.144 15C22.624 15.272 22.96 15.488 23.152 15.648C23.36 15.792 23.52 15.976 23.632 16.2C23.744 16.408 23.8 16.816 23.8 17.424V21.096C23.8 23.032 22.872 24 21.016 24H19.6C17.76 24 16.84 22.944 16.84 20.832V19.968H19.144V20.904C19.144 21.576 19.488 21.912 20.176 21.912H20.584C21.192 21.912 21.496 21.576 21.496 20.904V17.976C21.496 17.656 21.432 17.44 21.304 17.328C21.176 17.216 20.968 17.072 20.68 16.896L18.496 15.672C18.016 15.416 17.664 15.2 17.44 15.024C17.232 14.848 17.08 14.624 16.984 14.352C16.888 14.064 16.84 13.696 16.84 13.248V9.72C16.84 7.752 17.76 6.768 19.6 6.768H21.04C22.88 6.768 23.8 7.752 23.8 9.72V11.4H21.496Z" fill="#FFF500"/>
<path d="M13.432 15.144C14.696 15.496 15.328 16.152 15.328 17.112V21.432C15.328 23.144 14.456 24 12.712 24H8.08V6.768H12.016C14.064 6.768 15.088 7.808 15.088 9.888V13.2C15.088 14.192 14.536 14.8 13.432 15.024V15.144ZM10.384 21.912H12.112C12.72 21.912 13.024 21.664 13.024 21.168V17.352C13.024 16.536 12.568 16.128 11.656 16.128H10.384V21.912ZM10.384 14.04H11.464C12.344 14.04 12.784 13.624 12.784 12.792V10.104C12.784 9.272 12.44 8.856 11.752 8.856H10.384V14.04Z" fill="white"/>
</svg>