<svg xmlns="http://www.w3.org/2000/svg" width="32" height="32" viewBox="0 0 32 32" fill="none">
<g clip-path="url(#clip0)">
<circle cx="16" cy="16" r="16" fill="#FFCC29"/>
<path fill-rule="evenodd" clip-rule="evenodd" d="M11 26V6H16.8667C18.9407 6 20.5407 6.44444 21.6963 7.36296C22.8518 8.28148 23.4444 9.64444 23.4444 11.4519C23.4444 12.4 23.237 13.2593 22.8222 14C22.3778 14.7407 21.7556 15.2741 20.8963 15.6593C21.963 15.8963 22.7333 16.4296 23.237 17.2593C23.7407 18.0889 24.0074 19.037 24.0074 20.163C24.0074 22.0593 23.4444 23.5111 22.3481 24.5185C21.2519 25.4963 19.7111 26 17.6667 26H11ZM14.6148 14.4444H16.7778C17.5778 14.4148 18.2 14.1778 18.6148 13.7333C19.0296 13.2889 19.2371 12.6667 19.2371 11.8074C19.2371 10.8889 19.0296 10.2074 18.5852 9.76296C18.1408 9.31852 17.4889 9.11111 16.6 9.11111H14.6148V14.4444ZM14.6148 17.1704V22.8593H17.3704C18.2 22.8593 18.8222 22.6222 19.2371 22.1778C19.6222 21.7037 19.8296 21.0519 19.8296 20.1333C19.8296 19.1852 19.6519 18.4444 19.3259 17.9407C18.9704 17.4074 18.4074 17.1704 17.6371 17.1704H14.6148Z" fill="white"/>
</g>
<defs>
<clipPath id="clip0">
<rect width="32" height="32" fill="white"/>
</clipPath>
</defs>
</svg>