<svg xmlns="http://www.w3.org/2000/svg" width="32" height="32" viewBox="0 0 32 32" fill="none">
<circle cx="16" cy="16" r="16" fill="#1A253A"/>
<path fill-rule="evenodd" clip-rule="evenodd" d="M9.2446 16.3855C9.2446 14.472 11.0691 11.98 14.1841 10.6451C19.613 8.28657 22.728 10.4671 23.529 12.514C24.2855 14.4275 22.7725 17.854 20.236 20.346C22.0605 19.011 23.5735 17.6315 24.597 16.252C25.9765 14.4275 26.555 12.692 26.021 11.3125C25.2645 9.31006 22.194 8.64256 18.367 9.17656C14.5401 9.71056 11.6031 10.6896 9.2446 11.9355C6.57462 13.2705 5.23962 14.828 5.01713 16.6525C4.75013 19.278 7.59811 22.838 14.0506 23.283C17.4326 23.5055 20.7255 23.5945 27 22.037C26.2435 22.0815 9.2001 24.2175 9.2446 16.3855Z" fill="#A5CD39"/>
<path fill-rule="evenodd" clip-rule="evenodd" d="M15.5191 19.456C17.5216 19.456 19.2126 17.8095 19.2126 15.7625C19.2126 13.76 17.5661 12.069 15.5191 12.069C13.5166 12.069 11.8256 13.7155 11.8256 15.7625C11.8701 17.8095 13.5166 19.456 15.5191 19.456Z" fill="#A5CD39"/>
<path fill-rule="evenodd" clip-rule="evenodd" d="M15.5191 19.367C17.5661 19.367 19.2126 17.7205 19.2126 15.6735C19.2126 13.6265 17.5661 11.98 15.5191 11.98C13.4721 11.98 11.8256 13.6265 11.8256 15.6735C11.8701 17.7205 13.5166 19.367 15.5191 19.367Z" fill="#A5CD39"/>
</svg>