<svg xmlns="http://www.w3.org/2000/svg" width="32" height="32" viewBox="0 0 32 32" fill="none">
<circle cx="16" cy="16" r="16" fill="#111111"/>
<path fill-rule="evenodd" clip-rule="evenodd" d="M9.40541 7.2558C11.093 11.1746 12.9019 15.3753 21.3235 15.639C22.3915 15.6731 23.5633 15.6442 24.857 15.5418C24.6707 12.9373 23.8231 10.7736 22.5529 9.09669C19.4222 4.96744 13.7223 3.80229 9 6.32419C9.13657 6.63149 9.2706 6.94275 9.40541 7.2558Z" fill="white"/>
<path fill-rule="evenodd" clip-rule="evenodd" d="M20.876 16.3776C22.0609 16.3186 23.3796 16.3396 24.857 16.4564C24.2128 25.4824 15.6393 29.2207 9 25.6753C9.13818 25.3648 9.27371 25.0501 9.41003 24.7337C9.93773 23.5087 10.4772 22.2564 11.228 21.1052C12.8327 18.6437 15.4032 16.6479 20.876 16.3776Z" fill="white"/>
</svg>