<svg xmlns="http://www.w3.org/2000/svg" width="32" height="32" viewBox="0 0 32 32" fill="none">
<circle cx="16" cy="16" r="16" fill="#EF5635"/>
<path fill-rule="evenodd" clip-rule="evenodd" d="M14.7976 4.49176C14.7976 4.22017 15.0178 4 15.2894 4C15.561 4 15.7812 4.22017 15.7812 4.49176C15.7812 4.76336 15.561 4.98353 15.2894 4.98353C15.0178 4.98353 14.7976 4.76336 14.7976 4.49176ZM16.7388 5.03529C16.7388 4.7637 16.959 4.54353 17.2306 4.54353C17.5022 4.54353 17.7224 4.7637 17.7224 5.03529V6.40706C17.7224 6.67865 17.5022 6.89882 17.2306 6.89882C16.959 6.89882 16.7388 6.67865 16.7388 6.40706V5.03529ZM15.2894 5.83765C15.0178 5.83765 14.7976 6.05782 14.7976 6.32941V7.70118C14.7976 7.97277 15.0178 8.19294 15.2894 8.19294C15.561 8.19294 15.7812 7.97277 15.7812 7.70118V6.32941C15.7812 6.05782 15.561 5.83765 15.2894 5.83765ZM16.7129 8.24471C16.7129 7.97311 16.9331 7.75294 17.2047 7.75294C17.4763 7.75294 17.6965 7.97311 17.6965 8.24471V8.54237V9.88565V10.4059C17.6965 10.6703 17.9108 10.8847 18.1753 10.8847C18.4176 10.8847 18.6178 10.7048 18.6497 10.4712L18.6541 10.4739V10.4059V9.64235C18.6541 9.37076 18.8743 9.15059 19.1459 9.15059C19.4175 9.15059 19.6376 9.37076 19.6376 9.64235V9.84942V11.0781V11.7388C19.6376 11.9961 19.8462 12.2047 20.1035 12.2047C20.3608 12.2047 20.5694 11.9961 20.5694 11.7388L20.5694 11.6505V11.6353C20.5694 11.3637 20.7896 11.1435 21.0612 11.1435C21.3328 11.1435 21.5529 11.3637 21.5529 11.6353V12.2546V12.9424C21.5529 13.2068 21.7673 13.4212 22.0318 13.4212C22.2962 13.4212 22.5106 13.2068 22.5106 12.9424V12.8429V12.6965C22.5106 12.4249 22.7308 12.2047 23.0024 12.2047C23.2739 12.2047 23.4941 12.4249 23.4941 12.6965L23.4941 13.4471L23.4941 14.0165L23.4941 21.8071L16.2471 26L9 21.8071V14.0165V13.4471V12.6965C9 12.4249 9.22017 12.2047 9.49176 12.2047C9.76336 12.2047 9.98353 12.4249 9.98353 12.6965V12.8429V13.4859C9.98353 13.7503 10.1979 13.9647 10.4624 13.9647C10.7268 13.9647 10.9412 13.7503 10.9412 13.4859V12.2546V11.6224V11.1694C10.9412 10.8978 11.1613 10.6776 11.4329 10.6776C11.7045 10.6776 11.9247 10.8978 11.9247 11.1694V11.6505L11.9247 12.0753C11.9247 12.3326 12.1333 12.5412 12.3906 12.5412C12.6479 12.5412 12.8565 12.3326 12.8565 12.0753V11.0781V10.1859V8.89177C12.8565 8.62017 13.0766 8.4 13.3482 8.4C13.6198 8.4 13.84 8.62017 13.84 8.89176V9.11178V10.4739V10.9753C13.84 11.2398 14.0544 11.4541 14.3188 11.4541C14.5833 11.4541 14.7976 11.2398 14.7976 10.9753V9.88565V9.42235C14.7976 9.14361 15.0236 8.91765 15.3024 8.91765C15.5252 8.91765 15.7143 9.06205 15.7812 9.26237V10.16C15.7812 10.4173 15.9898 10.6259 16.2471 10.6259C16.5044 10.6259 16.7129 10.4173 16.7129 10.16V9.28148V8.2706V8.24471ZM19.1718 7.59765C18.9002 7.59765 18.68 7.81782 18.68 8.08941C18.68 8.36101 18.9002 8.58118 19.1718 8.58118C19.4434 8.58118 19.6635 8.36101 19.6635 8.08941C19.6635 7.81782 19.4434 7.59765 19.1718 7.59765ZM19.6635 14.9482H17.3859V16.7341H15.0824V14.9482H12.8047V20.3318H15.0824V18.6235H17.3859V20.3318H19.6635V14.9482Z" fill="white"/>
</svg>