<svg xmlns="http://www.w3.org/2000/svg" width="32" height="32" viewBox="0 0 32 32" fill="none">
<g clip-path="url(#clip0)">
<circle cx="16" cy="16" r="16" fill="#111111"/>
<path d="M16.1724 13.9575C16.1736 14.3877 16.2399 14.8152 16.3689 15.2256C16.6643 14.7399 17.0437 14.3105 17.4893 13.9575V13.9575C17.4898 13.3598 17.6728 12.7766 18.0139 12.2859C18.355 11.7951 18.8379 11.4203 19.3979 11.2116C19.5057 11.4363 19.6909 11.6147 19.9194 11.7142C20.148 11.8137 20.4047 11.8276 20.6427 11.7534C20.817 11.7001 20.9739 11.6013 21.0973 11.4671C21.2206 11.3329 21.3059 11.1683 21.3444 10.9901V10.9901C21.6031 10.9063 21.8183 10.7239 21.9432 10.4824C22.0681 10.2409 22.0927 9.95985 22.0116 9.70031C21.9306 9.44078 21.7504 9.22372 21.5102 9.09627C21.27 8.96883 20.9892 8.94128 20.7289 9.01964C20.5968 8.89412 20.4329 8.80714 20.2549 8.76811C20.077 8.72907 19.8917 8.73947 19.7192 8.79819C19.4807 8.87267 19.2771 9.03079 19.1459 9.24344C19.0147 9.4561 18.9647 9.70898 19.0051 9.95558C18.1769 10.2475 17.4596 10.7892 16.9524 11.506C16.4451 12.2228 16.1728 13.0793 16.173 13.9575H16.1724Z" fill="white"/>
<path d="M23.3388 8.30546L8.31695 8.30546V13.9571C7.87133 14.3101 7.49198 14.7395 7.19658 15.2252C7.0685 14.8146 7.00226 14.3872 7.00002 13.9571V6.99999L24.6439 6.99999L24.6439 13.9696C24.644 14.7441 24.4317 15.5038 24.0302 16.1661C23.6286 16.8284 23.0531 17.3679 22.3663 17.7259C21.6795 18.0839 20.9077 18.2468 20.1348 18.1967C19.3619 18.1467 18.6175 17.8857 17.9826 17.4421C18.0308 16.9809 18.2055 16.542 18.4874 16.1739C18.9125 16.5413 19.434 16.7788 19.9901 16.8584C20.5462 16.9379 21.1135 16.8561 21.6245 16.6227C22.1354 16.3892 22.5686 16.014 22.8725 15.5415C23.1764 15.069 23.3383 14.5192 23.3388 13.9574V8.30579V8.30546Z" fill="white"/>
<path d="M16.1724 17.676C16.1725 16.9015 16.3848 16.1419 16.7864 15.4797C17.188 14.8174 17.7635 14.278 18.4502 13.92C19.137 13.562 19.9087 13.3991 20.6816 13.4491C21.4545 13.4991 22.1988 13.76 22.8337 14.2035C22.7857 14.6648 22.611 15.1038 22.3289 15.4719C22.0046 15.191 21.6226 14.9847 21.2099 14.8675C20.7971 14.7504 20.3637 14.7253 19.9402 14.794C19.5167 14.8627 19.1134 15.0235 18.7588 15.2651C18.4043 15.5068 18.1071 15.8233 17.8882 16.1923C17.6694 16.5613 17.5342 16.9739 17.4923 17.4009C17.4503 17.8279 17.5026 18.2589 17.6455 18.6635C17.7884 19.0681 18.0183 19.4363 18.3191 19.7423C18.6198 20.0483 18.9841 20.2845 19.3861 20.4343C19.494 20.2096 19.6792 20.0312 19.9077 19.9317C20.1363 19.8322 20.393 19.8183 20.631 19.8925C20.8053 19.9458 20.9622 20.0446 21.0856 20.1788C21.2089 20.313 21.2942 20.4776 21.3327 20.6558V20.6558C21.594 20.7374 21.8121 20.9195 21.9391 21.1619C22.0661 21.4044 22.0916 21.6874 22.01 21.9486C21.9284 22.2099 21.7463 22.428 21.5039 22.555C21.2614 22.6821 20.9784 22.7076 20.7172 22.6259V22.6259C20.5852 22.7516 20.4213 22.8387 20.2433 22.8778C20.0653 22.9169 19.88 22.9065 19.7075 22.8477C19.469 22.7732 19.2655 22.615 19.1344 22.4024C19.0032 22.1897 18.9533 21.9369 18.9937 21.6903C18.1695 21.39 17.4572 20.8442 16.953 20.1264C16.4488 19.4086 16.1768 18.5535 16.1738 17.6763L16.1724 17.676Z" fill="white"/>
<path d="M15.4832 17.6767C15.4819 17.2465 15.4156 16.8189 15.2866 16.4086C14.9911 16.8942 14.6118 17.3236 14.1662 17.6767C14.1657 18.2743 13.9826 18.8574 13.6415 19.3481C13.3004 19.8388 12.8176 20.2135 12.2577 20.4222C12.1498 20.1975 11.9646 20.0191 11.736 19.9197C11.5075 19.8203 11.2507 19.8064 11.0128 19.8807C10.8384 19.9339 10.6814 20.0327 10.558 20.1669C10.4346 20.3011 10.3492 20.4658 10.3108 20.644V20.644C10.1814 20.6845 10.0613 20.75 9.95723 20.8368C9.85319 20.9237 9.76729 21.0302 9.70441 21.1503C9.64153 21.2704 9.60291 21.4016 9.59077 21.5366C9.57862 21.6716 9.59319 21.8077 9.63363 21.937C9.67407 22.0664 9.73959 22.1865 9.82646 22.2906C9.91332 22.3946 10.0198 22.4805 10.1399 22.5434C10.26 22.6063 10.3912 22.6449 10.5262 22.657C10.6612 22.6692 10.7973 22.6546 10.9266 22.6142V22.6142C11.0587 22.7398 11.2226 22.8268 11.4005 22.8659C11.5785 22.9049 11.7638 22.8945 11.9363 22.8356C12.1748 22.7611 12.3784 22.603 12.5096 22.3904C12.6409 22.1777 12.6909 21.9248 12.6504 21.6782C13.4777 21.3848 14.1939 20.8427 14.7009 20.1263C15.2079 19.4098 15.4809 18.5541 15.4825 17.6763L15.4832 17.6767Z" fill="white"/>
<path d="M15.4831 13.9572C15.4833 13.0791 15.211 12.2225 14.7037 11.5057C14.1964 10.7889 13.4792 10.2472 12.651 9.95533C12.6946 9.7084 12.6459 9.45407 12.5143 9.24067C12.3826 9.02728 12.1771 8.86972 11.9369 8.79794C11.7637 8.74518 11.5799 8.73783 11.4031 8.77662C11.2263 8.8154 11.0624 8.899 10.9272 9.01939V9.01939C10.6668 8.94104 10.3861 8.96858 10.1459 9.09602C9.90571 9.22347 9.72552 9.44053 9.64445 9.70006C9.56337 9.9596 9.58797 10.2406 9.7129 10.4821C9.83783 10.7236 10.053 10.9061 10.3117 10.9899V10.9899C10.3585 11.2002 10.4698 11.3907 10.6301 11.5347C10.7903 11.6788 10.9915 11.7694 11.2056 11.7937C11.4197 11.8181 11.636 11.7751 11.8245 11.6707C12.013 11.5663 12.1643 11.4057 12.2572 11.2113C12.659 11.3613 13.023 11.5976 13.3235 11.9036C13.624 12.2096 13.8536 12.5778 13.9963 12.9822C14.139 13.3866 14.1911 13.8174 14.1492 14.2442C14.1072 14.671 13.972 15.0834 13.7533 15.4523C13.5345 15.8211 13.2375 16.1375 12.8832 16.3791C12.5288 16.6206 12.1258 16.7815 11.7025 16.8503C11.2792 16.9191 10.8459 16.8941 10.4333 16.7772C10.0207 16.6603 9.63877 16.4543 9.31446 16.1737C9.02259 16.5361 8.84668 16.978 8.80964 17.4418C9.44625 17.886 10.1925 18.147 10.9671 18.1966C11.7417 18.2463 12.5151 18.0825 13.2032 17.7233C13.8913 17.364 14.4676 16.8229 14.8697 16.159C15.2717 15.495 15.484 14.7334 15.4834 13.9572H15.4831Z" fill="white"/>
<path d="M7.0115 17.676C7.01151 16.9015 7.22386 16.1419 7.62545 15.4797C8.02705 14.8174 8.60251 14.278 9.28927 13.92C9.97603 13.562 10.7478 13.3991 11.5207 13.4491C12.2935 13.4991 13.0379 13.76 13.6728 14.2035C13.6246 14.6646 13.4499 15.1035 13.168 15.4716C12.743 15.104 12.2213 14.8663 11.6651 14.7866C11.1089 14.707 10.5415 14.7888 10.0304 15.0222C9.51933 15.2557 9.08605 15.6311 8.78212 16.1037C8.47819 16.5763 8.3164 17.1262 8.31597 17.6881V23.3398L23.3385 23.3398V17.6881C23.784 17.335 24.1634 16.9057 24.4588 16.42C24.5869 16.8306 24.6532 17.258 24.6554 17.6881V25L7.01084 25V17.676H7.0115Z" fill="white"/>
</g>
<defs>
<clipPath id="clip0">
<rect width="32" height="32" fill="white"/>
</clipPath>
</defs>
</svg>