<svg xmlns="http://www.w3.org/2000/svg" xmlns:xlink="http://www.w3.org/1999/xlink" width="32px" height="32px" viewBox="0 0 80 80" version="1.1">
    <g id="novomatic-color" stroke="none" stroke-width="1" fill="none" fill-rule="evenodd">
        <rect fill="#FFFFFF" x="0" y="0" width="80" height="80"/>
        <g id="Group" transform="translate(5.000000, 2.000000)" fill="#002A5B" fill-rule="nonzero">
            <path d="M30.0968068,0.0793102986 C35.8044568,-0.115689701 41.5335568,0.0325102986 47.2080568,0.707210299 C51.4649068,1.2454103 55.7451568,2.0137103 59.7251068,3.6692603 C62.3049568,4.7612603 64.8087568,6.3232103 66.3921568,8.6905103 C67.9482568,11.0207603 68.6385568,13.8170603 68.8940068,16.5782603 C69.3834568,22.2625103 68.5352068,27.9389603 68.0184568,33.5900603 C67.3496068,41.2223603 66.5423068,48.8663603 64.8536068,56.3485103 C64.2354568,59.0063603 63.5139568,61.6564103 62.4122068,64.1602103 C61.6712068,65.8391603 60.6942568,67.4459603 59.3370568,68.6978603 C57.4962568,70.3982603 55.2128068,71.5331603 52.8747568,72.3833603 C49.3511068,73.6469603 45.6402568,74.2982603 41.9274568,74.6921603 C34.9854568,75.4000103 27.9206068,75.1601603 21.0761068,73.7600603 C18.2135068,73.1419103 15.3723568,72.2858603 12.7905568,70.8799103 C11.0375068,69.9205103 9.40340684,68.6725103 8.23925684,67.0286603 C6.95030684,65.2210103 6.13715684,63.1247603 5.45270684,61.0265603 C4.26515684,57.2884103 3.52220684,53.4274103 2.88845684,49.5625103 C2.13770684,44.9683103 1.63265684,40.3390103 1.22705684,35.7038603 C0.780506845,30.5636603 0.0473068445,25.4390603 0.000506844543,20.2696103 C-0.0170431555,16.2545603 0.411956845,11.9840603 2.73050684,8.5774103 C4.90280684,5.4613103 8.52005684,3.7960103 12.0359068,2.6806103 C17.8839568,0.910010299 24.0167068,0.332810299 30.0968068,0.0793102986 L30.0968068,0.0793102986 Z M31.8557068,2.6279603 C26.5029568,2.7605603 21.1346068,3.1915103 15.8969068,4.3439603 C13.6310068,4.8607103 11.3787568,5.5178603 9.28250684,6.5377103 C7.69325684,7.3196603 6.17225684,8.3375603 5.09000684,9.7591103 C3.97850684,11.2411103 3.36230684,13.0351103 3.01715684,14.8388603 C2.45360684,17.9218103 2.55305684,21.0749603 2.75585684,24.1871603 C3.04835684,28.2197603 3.53585684,32.2348103 3.88685684,36.2635103 C4.31000684,41.0332103 4.87355684,45.7912103 5.68280684,50.5102103 C6.31655684,54.1079603 7.04000684,57.7076603 8.23535684,61.1669603 C8.93150684,63.1052603 9.77585684,65.0669603 11.2364068,66.5606603 C12.6248068,67.9490603 14.3876068,68.8948103 16.1933068,69.6260603 C19.0325068,70.7531603 22.0433068,71.3830103 25.0599568,71.8139603 C30.0656068,72.5101103 35.1473068,72.6680603 40.1841568,72.2351603 C43.7819068,71.9251103 47.3855068,71.4064103 50.8428568,70.3358603 C53.1068068,69.6221603 55.3512568,68.6705603 57.1901068,67.1339603 C58.4205568,66.1141103 59.2980568,64.7354603 59.9571568,63.2944103 C61.0296568,60.9310103 61.7043568,58.4096603 62.2952068,55.8902603 C63.9117568,48.7298603 64.7171068,41.4193103 65.3547568,34.1185103 C65.8130068,29.0563103 66.5345068,23.9999603 66.4311568,18.9065603 C66.3258568,15.7846103 65.9007568,12.4774103 64.0404568,9.8683103 C62.5838068,7.9085603 60.3627568,6.7054103 58.1358568,5.8259603 C54.5147068,4.4336603 50.6634568,3.7706603 46.8297568,3.2831603 C41.8631068,2.6942603 36.8535568,2.5285103 31.8557068,2.6279603 Z" id="Shape"/>
            <path d="M31.8401068,6.3154103 C37.2845068,6.2101103 42.7484068,6.4051103 48.1440568,7.1753603 C51.0398068,7.6121603 53.9375068,8.1737603 56.6831068,9.2150603 C58.0188568,9.7376603 59.3487568,10.3616603 60.4251568,11.3308103 C61.3436068,12.1478603 61.8408568,13.3217603 62.1684568,14.4820103 C62.7632068,16.6874603 62.7827068,18.9943103 62.7417568,21.2621603 C62.5994068,25.8193103 61.9851568,30.3433103 61.5893068,34.8809603 C61.1915068,39.3991103 60.7040068,43.9114103 59.9825068,48.3905603 C59.3838568,52.0565603 58.6877068,55.7206103 57.5625568,59.2657103 C57.1062568,60.6326603 56.5973068,62.0015603 55.8017068,63.2125103 C55.0724068,64.3181603 53.9238568,65.0513603 52.7616568,65.6324603 C50.7063568,66.6347603 48.4775068,67.2178103 46.2486568,67.6838603 C42.0678568,68.5165103 37.7934568,68.8402103 33.5346568,68.7856103 C29.2739068,68.7037103 25.0014568,68.2766603 20.8596568,67.2431603 C18.7478068,66.6893603 16.6184068,66.0088103 14.8010068,64.7647103 C13.9001068,64.1641103 13.2020068,63.3022103 12.7242568,62.3369603 C11.6147068,60.1549103 11.0004568,57.7661603 10.4174068,55.4027603 C8.80280684,48.4081103 8.01695684,41.2555103 7.38320684,34.1165603 C6.95420684,29.2552103 6.25610684,24.4036103 6.28925684,19.5130103 C6.33605684,17.2334603 6.49205684,14.8661603 7.52165684,12.7894103 C8.29775684,11.1845603 9.93770684,10.2700103 11.4996568,9.5680103 C14.7132568,8.1952103 18.1823068,7.5614603 21.6240568,7.0759103 C25.0112068,6.6176603 28.4256568,6.4012103 31.8401068,6.3154103 L31.8401068,6.3154103 Z M14.3681068,20.1760103 C14.1282568,20.9716103 13.9098568,21.7886603 13.8338068,22.6174103 C13.8318568,23.4305603 14.7269068,23.6587103 15.3548068,23.8322603 C16.8738568,24.1696103 18.4923568,24.4855103 19.7247568,25.5073103 C20.8167568,26.4335603 21.0839068,28.0072103 20.8245568,29.3566103 C19.7657068,34.5631103 18.6932068,39.7676603 17.6343568,44.9741603 C17.4647068,45.7970603 17.1917068,46.6277603 16.6554568,47.2888103 C16.1153068,47.9323103 15.2553568,48.1858103 14.4480568,48.2638103 C13.9040068,48.3554603 13.2429568,48.2735603 12.8178568,48.6889103 C12.4278568,49.2758603 12.3752068,50.0188103 12.2796568,50.6993603 C12.2523568,51.4111103 13.0382068,51.7445603 13.6446568,51.7114103 C18.9174568,51.7445603 24.1902568,51.7835603 29.4630568,51.8245103 C29.9447068,51.8459603 30.5414068,51.6841103 30.6779068,51.1556603 C30.8768068,50.4302603 30.9918568,49.6814603 31.0835068,48.9385103 C31.1439568,48.3496103 30.5024068,48.1507103 30.0461068,48.0805103 C29.0925568,47.9206103 28.1897068,47.4740603 27.5267068,46.7662103 C26.9943568,46.1246603 27.0294568,45.2198603 27.1815568,44.4476603 C27.6456568,41.9224103 28.0824568,39.3913103 28.5524068,36.8699603 C28.6128568,36.5501603 28.8644068,36.1192103 29.2524568,36.2440103 C29.5625068,36.2810603 29.7594568,36.5423603 29.8940068,36.7978103 C32.4738568,41.4329603 35.0576068,46.0681103 37.6472068,50.6993603 C38.0021068,51.4247603 38.7626068,51.8596103 39.5660068,51.8264603 C43.8599068,51.8264603 48.1557568,51.7523603 52.4496568,51.7367603 C52.9859068,51.7231103 53.6411068,51.7562603 54.0096568,51.2843603 C54.4484068,50.7286103 54.4854568,49.9817603 54.6512068,49.3168103 C54.8306068,48.7318103 54.5907568,48.0083603 53.9667568,47.8211603 C52.4009068,47.2576103 50.5991068,47.0197103 49.3998568,45.7483103 C49.0040068,45.3602603 49.1249068,44.7616103 49.2302068,44.2799603 C50.6907568,38.2915103 52.1474068,32.3030603 53.6021068,26.3146103 C53.7600568,25.6087103 54.1344568,24.9457103 54.6863068,24.4757603 C55.5072568,23.8361603 56.5700068,23.7074603 57.5196568,23.3603603 C58.0676068,23.1653603 58.1300068,22.5218603 58.2665068,22.0382603 C58.3874068,21.3928103 58.6799068,20.7629603 58.6487068,20.0980103 C58.5804568,19.5676103 57.9759568,19.4350103 57.5313568,19.4447603 C52.5920068,19.4350103 47.6507068,19.4467103 42.7113568,19.4389103 C42.3213568,19.4272103 41.9157568,19.5013103 41.6096068,19.7567603 C40.9349068,20.2286603 40.9680568,21.1295603 40.7613568,21.8452103 C40.6307068,22.3112603 40.5332068,23.0425103 41.1201568,23.2355603 C42.0756568,23.4539603 43.2008068,23.5787603 43.8521068,24.4036103 C44.2362568,25.1153603 44.1173068,25.9772603 43.9808068,26.7397103 C43.2651568,30.1522103 42.5573068,33.5666603 41.8455568,36.9811103 C39.0804568,31.7297603 36.3368068,26.4667103 33.5795068,21.2114603 C33.0120568,20.2130603 31.9941568,19.4194103 30.8007568,19.4447603 C25.8653068,19.4330603 20.9298568,19.4467103 15.9944068,19.4389103 C15.3918568,19.4350103 14.5884568,19.4954603 14.3681068,20.1760103 Z" id="Shape"/>
        </g>
    </g>
</svg>