<svg xmlns="http://www.w3.org/2000/svg" width="32" height="32" viewBox="0 0 32 32" fill="none">
<path d="M15.827 32C24.568 32 31.654 24.8366 31.654 16C31.654 7.16344 24.568 0 15.827 0C7.08599 0 0 7.16344 0 16C0 24.8366 7.08599 32 15.827 32Z" fill="#FF4040"/>
<path d="M24 13.4743C24 17.2451 21.0297 20.0198 17.0198 20.0198H14.198V25H9V7H17.0198C21.0297 7 24 9.70356 24 13.4743ZM18.6535 13.4743C18.6535 12.1937 17.7624 11.3399 16.4257 11.3399H14.198V15.6798H16.4257C17.7624 15.6798 18.6535 14.7549 18.6535 13.4743Z" fill="white"/>
</svg>