<svg xmlns="http://www.w3.org/2000/svg" width="32" height="32" viewBox="0 0 32 32" fill="none">
<g clip-path="url(#clip0_1101_36)">
<ellipse cx="15.827" cy="16" rx="15.827" ry="16" fill="#FF002A"/>
<path d="M8.05882 25.9489C7.55294 25.8166 7.14412 25.3812 7.03529 24.8606C6.98824 24.6399 6.98824 7.36112 7.03529 7.1405C7.2 6.35804 8.01176 5.84327 8.77353 6.04329C8.87353 6.06683 12.5706 7.89943 17.6794 10.4557C26.3265 14.7798 26.4176 14.8268 26.5853 14.9975C27.1382 15.5593 27.1382 16.4418 26.5853 17.0036C26.4176 17.1742 26.3294 17.2183 20.3794 20.1952C13.8618 23.4545 14.1471 23.3221 13.75 23.2839C13.2235 23.2309 12.7971 22.9309 12.5676 22.4485L12.4588 22.222L12.45 19.0304C12.4441 16.6565 12.45 15.7976 12.4765 15.677C12.6765 14.7386 13.8118 14.2738 14.6235 14.7974C14.8118 14.918 15.0412 15.1651 15.1353 15.3534C15.2912 15.6593 15.2971 15.7446 15.2971 17.7155C15.2971 18.7127 15.3029 19.5304 15.3118 19.5304C15.3412 19.5304 22.3559 16.0152 22.3559 16.0005C22.3559 15.9799 9.92353 9.76439 9.88529 9.76439C9.86471 9.76439 9.85588 12.2912 9.85588 17.2742C9.85588 24.0634 9.85 24.8017 9.80882 24.9459C9.73235 25.2047 9.59412 25.4342 9.40882 25.6077C9.02647 25.9607 8.55882 26.0784 8.05882 25.9489V25.9489Z" fill="white"/>
</g>
<defs>
<clipPath id="clip0_1101_36">
<rect width="32" height="32" fill="white"/>
</clipPath>
</defs>
</svg>