<svg xmlns="http://www.w3.org/2000/svg" width="32" height="32" viewBox="0 0 32 32" fill="none">
<g clip-path="url(#clip0)">
<circle cx="16" cy="16" r="16" fill="#1C1C1C"/>
<path fill-rule="evenodd" clip-rule="evenodd" d="M22.1341 9.0266C22.1341 9.04196 22.0456 9.05305 21.9215 9.05305C21.791 9.05305 21.6393 9.07284 21.5297 9.1042C21.0872 9.23073 20.872 9.3012 20.8638 9.32242C20.8589 9.33493 20.835 9.34538 20.8107 9.34569C20.6606 9.34696 20.1567 9.55013 20.0715 9.64357C20.0399 9.67825 19.9238 9.74096 19.8136 9.78308C19.6832 9.8328 19.5687 9.9001 19.4859 9.97532C19.4161 10.039 19.3263 10.1087 19.2866 10.1302C19.2468 10.1516 19.2014 10.1934 19.1854 10.2232C19.1695 10.2529 19.0962 10.3144 19.0226 10.3597C18.9489 10.4049 18.8565 10.4851 18.8172 10.5377C18.7073 10.6851 18.6026 10.8021 18.4359 10.9646C18.3519 11.0463 18.2832 11.1226 18.2832 11.134C18.2832 11.1567 18.1507 11.3408 18.1161 11.366C18.1044 11.3746 18.0745 11.4181 18.0495 11.4628C18.0111 11.5318 17.886 11.7097 17.811 11.802C17.7647 11.859 17.7492 11.8986 17.6849 12.1252C17.6116 12.3832 17.5418 12.5589 17.5125 12.5589C17.4658 12.5589 17.3497 12.8972 17.2844 13.2237C17.2452 13.4204 17.2053 13.5873 17.1958 13.5947C17.1806 13.6065 17.093 13.848 16.9601 14.2454C16.9357 14.3184 16.9066 14.3821 16.8957 14.387C16.8846 14.3919 16.8756 14.4177 16.8756 14.4443C16.8756 14.6557 16.6649 15.4996 16.5905 15.5866C16.5018 15.6901 16.3889 16.0844 16.3299 16.4962C16.3199 16.5657 16.3034 16.6224 16.2933 16.6224C16.283 16.6224 16.2599 16.6802 16.2418 16.7508C16.2238 16.8214 16.1677 16.9613 16.1173 17.0614C16.0668 17.1616 16.0257 17.2591 16.0257 17.2781C16.0257 17.2973 16.0149 17.313 16.0017 17.313C15.9736 17.313 15.9373 17.4644 15.8774 17.8308C15.8321 18.1071 15.7362 18.403 15.6701 18.469C15.6491 18.4901 15.602 18.6001 15.5655 18.7135C15.5051 18.9002 15.4757 19.0415 15.4266 19.3778C15.4176 19.4399 15.4006 19.4907 15.3889 19.4907C15.3772 19.4907 15.362 19.5237 15.355 19.5637C15.348 19.6039 15.2983 19.8041 15.2446 20.0087C15.191 20.2131 15.1398 20.4641 15.1308 20.5664C15.1219 20.6686 15.1015 20.7622 15.0855 20.7742C15.0647 20.7899 15.0658 20.8 15.0894 20.8097C15.1115 20.8185 15.1227 20.884 15.1227 21.0029C15.1227 21.2219 15.318 22.0013 15.3894 22.067C15.3973 22.0743 15.4374 22.1475 15.4784 22.2298C15.5279 22.3291 15.5914 22.4064 15.6676 22.4601C15.7306 22.5044 15.803 22.5847 15.8285 22.6384C15.8725 22.7315 16.0747 22.8886 16.1519 22.8899C16.1701 22.89 16.185 22.9014 16.185 22.915C16.185 22.9287 16.2119 22.9481 16.2448 22.9584C16.2776 22.9686 16.3707 23.0232 16.4518 23.0797C16.5327 23.1363 16.6135 23.1825 16.6311 23.1825C16.6486 23.1825 16.663 23.1928 16.663 23.2053C16.663 23.2406 17.0475 23.336 17.3156 23.367C17.6381 23.4044 21.0283 23.4042 21.3945 23.3668C21.734 23.3322 22.1267 23.2468 22.1766 23.1971C22.197 23.1765 22.3125 23.1225 22.433 23.0769C22.7826 22.9447 22.7981 22.938 22.7981 22.9179C22.7981 22.9074 22.849 22.8827 22.911 22.8631C23.0844 22.8085 23.3069 22.6903 23.4004 22.6036C23.4468 22.5605 23.5372 22.4997 23.6015 22.4686C23.6658 22.4374 23.7549 22.3792 23.7996 22.3391C24.0938 22.0745 24.2625 21.9252 24.3784 21.8265C24.4516 21.7643 24.5613 21.6464 24.6226 21.5649C24.6839 21.4832 24.7496 21.3983 24.7687 21.3764C24.7877 21.3546 24.8609 21.2619 24.9311 21.1706C25.0014 21.0794 25.0674 21.0046 25.0777 21.0046C25.0988 21.0046 25.1429 20.9189 25.256 20.6594C25.2973 20.5644 25.3574 20.4629 25.3892 20.4336C25.4837 20.3471 25.5555 20.1618 25.6411 19.7829C25.6593 19.7026 25.682 19.6309 25.6916 19.6236C25.7012 19.6163 25.7314 19.5325 25.7589 19.4377C25.7865 19.3427 25.8348 19.2049 25.8665 19.1314C25.8981 19.0579 25.9324 18.9534 25.9425 18.8991C25.9528 18.8446 25.9702 18.8003 25.9811 18.8003C25.9922 18.8003 26.0161 18.7255 26.0343 18.6342C26.0844 18.3838 26.2811 17.6732 26.3045 17.6582C26.333 17.6398 26.4155 17.3808 26.5034 17.0341C26.5441 16.8734 26.5876 16.7353 26.6 16.7271C26.6125 16.719 26.6347 16.6472 26.6494 16.5678C26.6907 16.3459 26.8735 15.804 26.9175 15.7725C26.9278 15.7652 26.9864 15.5527 27.0478 15.3003C27.1091 15.0478 27.1731 14.8268 27.1897 14.8089C27.2535 14.7413 27.3645 14.3938 27.4336 14.0462C27.4611 13.9073 27.4911 13.7879 27.4999 13.7807C27.509 13.7732 27.5316 13.7075 27.5503 13.6345C27.6114 13.3947 27.7986 12.8115 27.8186 12.7979C27.8482 12.7779 27.9429 12.4134 27.9791 12.1798C28.0214 11.9073 27.9953 11.0632 27.9381 10.8591C27.8765 10.6392 27.8385 10.5286 27.8198 10.5139C27.7755 10.4791 27.6105 10.2246 27.5786 10.1421C27.5373 10.0347 27.5189 10.0097 27.3687 9.85656C27.3077 9.79448 27.2418 9.74365 27.2223 9.74365C27.2029 9.74365 27.1435 9.6906 27.0903 9.62583C26.9856 9.49803 26.8944 9.44213 26.6891 9.37974C26.616 9.35757 26.5503 9.33065 26.543 9.31988C26.5283 9.29819 26.1252 9.15092 25.9189 9.09185C25.8459 9.07079 25.7114 9.05353 25.6201 9.05337C25.5273 9.05321 25.4541 9.04133 25.4541 9.0266C25.4541 9.01188 25.4003 9 25.3346 9C25.2688 9 25.215 9.01188 25.215 9.0266C25.215 9.04386 24.7016 9.05305 23.7277 9.05305C22.754 9.05305 22.2404 9.04386 22.2404 9.0266C22.2404 9.01188 22.2165 9 22.1874 9C22.1581 9 22.1341 9.01188 22.1341 9.0266ZM10.4749 9.31497C10.4749 9.32748 10.3584 9.35108 10.2158 9.36739C9.89563 9.40397 9.2801 9.58323 9.27978 9.64008C9.27978 9.64879 9.13393 9.71451 8.95578 9.78609C8.77557 9.85846 8.59583 9.94983 8.5507 9.99179C8.5062 10.0334 8.42481 10.0977 8.37001 10.1348C8.31522 10.1718 8.27041 10.2105 8.27041 10.2205C8.27041 10.2306 8.21641 10.2658 8.15053 10.2987C8.00484 10.3715 7.87214 10.4799 7.87214 10.5259C7.87214 10.5446 7.82131 10.5934 7.75923 10.6343C7.62906 10.7198 7.4791 10.8702 7.32818 11.0667C7.27006 11.1424 7.21369 11.2043 7.20308 11.2043C7.15985 11.2043 7.0406 11.3592 6.97979 11.4944C6.94401 11.5736 6.89127 11.6549 6.86229 11.6751C6.83331 11.6954 6.80972 11.7272 6.80972 11.7458C6.80972 11.7643 6.77963 11.8077 6.74289 11.8422C6.70615 11.8767 6.66245 11.9505 6.64566 12.0063C6.62903 12.0618 6.6067 12.1073 6.59625 12.1073C6.58058 12.1073 6.4797 12.4017 6.39799 12.6859C6.38849 12.7192 6.35397 12.7752 6.3215 12.8102C6.27875 12.8565 6.22712 13.0156 6.1348 13.3871C6.06465 13.6693 5.9994 13.9061 5.9899 13.9134C5.95094 13.9431 5.72085 14.6499 5.72085 14.7397C5.72085 14.7672 5.70992 14.7899 5.69662 14.7899C5.68332 14.7899 5.6355 14.9422 5.59036 15.1284C5.4849 15.5628 5.41126 15.8035 5.37753 15.8244C5.34554 15.8441 5.1476 16.5293 5.12194 16.7087C5.11196 16.7781 5.09328 16.8349 5.08029 16.8349C5.06747 16.8349 5.0567 16.8558 5.05654 16.8813C5.05591 16.9511 4.96422 17.2273 4.88678 17.3926C4.84909 17.4729 4.81821 17.5595 4.81805 17.5852C4.8179 17.6107 4.80744 17.6316 4.79493 17.6316C4.78242 17.6316 4.74552 17.7651 4.71306 17.928C4.64386 18.2755 4.51131 18.7494 4.47727 18.7715C4.42564 18.8049 4.36927 18.9616 4.28566 19.3048C4.23752 19.5021 4.19016 19.6693 4.18035 19.6766C4.1254 19.7175 4.01977 20.3797 4.00251 20.7921C3.98224 21.2767 4.0885 21.9608 4.18399 21.9608C4.19666 21.9608 4.20695 21.9795 4.20695 22.0023C4.20695 22.132 4.38035 22.4248 4.47933 22.4623C4.50514 22.472 4.56484 22.5391 4.61219 22.6112C4.65954 22.6834 4.74014 22.7701 4.79129 22.804C4.84228 22.8378 4.90214 22.8804 4.92399 22.8984C4.94601 22.9165 5.01172 22.9537 5.07016 22.9811C5.12859 23.0085 5.21553 23.0649 5.26351 23.1067C5.3115 23.1483 5.36835 23.1825 5.38973 23.1825C5.4111 23.1825 5.42868 23.1939 5.42868 23.208C5.42868 23.2522 5.77643 23.3429 6.05277 23.3708C6.54114 23.4199 10.5253 23.3882 10.7793 23.3333C11.0426 23.2761 11.2011 23.2305 11.2186 23.2066C11.2387 23.1786 11.731 22.9434 11.7693 22.9434C11.7877 22.9434 11.8027 22.9315 11.8027 22.9168C11.8027 22.9022 11.8178 22.8903 11.836 22.8903C11.8982 22.8902 12.1877 22.7361 12.2675 22.6604C12.3644 22.5686 12.6433 22.3591 12.6686 22.3591C12.6788 22.3591 12.7898 22.2541 12.9155 22.1256C13.0412 21.9972 13.1863 21.8602 13.2381 21.8213C13.2899 21.7823 13.3795 21.6783 13.4373 21.5901C13.4951 21.502 13.5513 21.4298 13.5622 21.4297C13.5733 21.4297 13.5822 21.4171 13.5822 21.4018C13.5822 21.3677 13.8085 21.0342 13.8717 20.9752C13.8967 20.9516 13.9618 20.7938 14.0161 20.6244C14.0703 20.4551 14.1317 20.2996 14.1523 20.279C14.2557 20.1756 14.3531 19.9178 14.4101 19.597C14.4426 19.4144 14.4769 19.259 14.4866 19.2518C14.4962 19.2445 14.519 19.1906 14.5374 19.1322C14.587 18.9746 14.754 18.6072 14.7949 18.5664C14.8145 18.5469 14.8305 18.522 14.8305 18.5113C14.8305 18.3529 15.0552 17.4211 15.1007 17.3909C15.1518 17.3569 15.3615 16.6485 15.3617 16.5095C15.3617 16.4694 15.3723 16.4365 15.3853 16.4365C15.3982 16.4365 15.4169 16.3798 15.4269 16.3103C15.4611 16.0719 15.615 15.6482 15.6971 15.566C15.7957 15.4675 15.8375 15.1343 15.7907 14.8185C15.7572 14.5929 15.9006 14.6063 13.4797 14.6029L11.3573 14.5997L11.2439 14.6576C11.1422 14.7096 10.9824 14.8534 10.8732 14.9918C10.8005 15.0838 10.765 15.1935 10.7151 15.4797C10.6589 15.8029 10.5634 16.1443 10.5292 16.1443C10.4885 16.1443 10.3723 16.4935 10.3127 16.795C10.2809 16.9557 10.2447 17.0911 10.2321 17.096C10.2195 17.1009 10.2092 17.1206 10.2092 17.1397C10.2092 17.1589 10.1724 17.261 10.1275 17.3668C10.0472 17.5553 10.0462 17.5632 10.0744 17.7732C10.1039 17.9914 10.1192 18.0175 10.2358 18.0476C10.2724 18.0571 10.3082 18.0731 10.3154 18.0832C10.3496 18.1309 10.4982 18.1488 10.7216 18.1322C11.4037 18.0813 11.6995 18.2601 11.5445 18.6294C11.5082 18.716 11.4675 18.7909 11.4542 18.796C11.4081 18.8131 11.3557 18.9488 11.3134 19.1598C11.2347 19.552 11.0413 19.8625 10.8757 19.8625C10.8451 19.8625 10.8201 19.8732 10.8201 19.886C10.8201 19.9686 8.22211 20.0198 8.0153 19.9412C7.77918 19.8515 7.64347 19.378 7.80705 19.2144C7.82859 19.1928 7.88053 19.04 7.92234 18.8749C8.03224 18.4422 8.0883 18.2579 8.11522 18.2406C8.15417 18.2155 8.23636 17.9649 8.31332 17.6364C8.35339 17.4658 8.39472 17.3203 8.40549 17.3128C8.41625 17.3055 8.4332 17.2517 8.44333 17.1934C8.49686 16.8846 8.6587 16.3834 8.72204 16.3302C8.74707 16.3092 8.79742 16.1196 8.84256 15.8767C8.89972 15.569 8.98587 15.2657 9.02815 15.2236C9.09054 15.1611 9.21881 14.7837 9.26806 14.5177C9.29451 14.3751 9.3257 14.2586 9.33774 14.2586C9.34962 14.2586 9.35943 14.2359 9.35943 14.2081C9.35943 14.1802 9.40219 14.0397 9.45445 13.8959C9.50671 13.7522 9.5634 13.5957 9.5805 13.5482C9.59744 13.5007 9.61993 13.4619 9.63038 13.4619C9.64083 13.4619 9.66681 13.405 9.68787 13.3357C9.75485 13.1157 9.88787 12.8543 9.94947 12.8213C10.0817 12.7505 10.3091 12.7452 13.1442 12.7453C15.8144 12.7455 16.0982 12.7415 16.1536 12.7027C16.2773 12.6161 16.4771 12.417 16.4771 12.3806C16.4771 12.329 16.5856 12.0808 16.6081 12.0808C16.6274 12.0808 16.6616 11.9486 16.7977 11.3505C16.8442 11.1459 16.8914 10.9727 16.9025 10.9654C16.9136 10.9581 16.9354 10.9103 16.9508 10.8591C16.9663 10.808 17.0212 10.6466 17.073 10.5006C17.1248 10.3544 17.1673 10.2081 17.1674 10.1752C17.1676 10.1424 17.1776 10.1155 17.1894 10.1155C17.2015 10.1155 17.239 9.99797 17.2729 9.8545C17.3432 9.55647 17.33 9.5069 17.1517 9.39669C17.102 9.36596 17.0615 9.32986 17.0615 9.31656C17.0615 9.30183 15.7511 9.29217 13.7681 9.29217C11.9513 9.29217 10.4749 9.3023 10.4749 9.31497ZM23.8131 12.784C24.0447 12.8098 24.0642 12.8277 24.1122 13.0585C24.1692 13.3323 24.1662 13.3542 24.037 13.6001C23.9733 13.7213 23.9125 13.8682 23.9017 13.9267C23.891 13.9849 23.8737 14.0388 23.8632 14.0461C23.8528 14.0535 23.8113 14.2207 23.7711 14.418C23.6903 14.8147 23.6004 15.1351 23.5701 15.1351C23.5244 15.1351 23.3833 15.5441 23.3274 15.8388C23.3079 15.9411 23.2851 16.0308 23.2767 16.038C23.2681 16.0453 23.2457 16.1171 23.2267 16.1975C23.1807 16.3917 23.106 16.6102 23.0388 16.7473C23.0088 16.8086 22.9841 16.8764 22.9841 16.8978C22.9841 16.9191 22.9719 16.9407 22.9568 16.9458C22.9419 16.9508 22.9003 17.1022 22.8643 17.2823C22.7935 17.6375 22.7025 17.9676 22.6714 17.9816C22.6225 18.0034 22.502 18.3771 22.4361 18.7113C22.3962 18.9135 22.3544 19.0853 22.3433 19.0931C22.3321 19.1007 22.3099 19.1664 22.2938 19.2391C22.2331 19.5127 21.9699 19.8637 21.7636 19.9457C21.6638 19.9854 19.3193 19.9799 19.2314 19.9398C19.16 19.9074 19.0533 19.7194 19.0533 19.6261C19.0533 19.5979 19.0392 19.5701 19.0218 19.5644C18.9804 19.5506 18.9795 19.2809 19.0207 19.2556C19.0375 19.2451 19.1018 19.0595 19.1632 18.843C19.2248 18.6266 19.2881 18.4357 19.3038 18.419C19.3583 18.361 19.5466 17.7065 19.5973 17.3993C19.6074 17.3372 19.6258 17.2864 19.6378 17.2864C19.65 17.2864 19.6722 17.2295 19.6874 17.1602C19.7282 16.9727 19.9005 16.4837 19.9336 16.4617C19.9548 16.4476 19.9927 16.3038 20.1143 15.7745C20.1685 15.5389 20.2068 15.4314 20.2475 15.4007C20.297 15.3634 20.3898 15.0322 20.5081 14.4711C20.5157 14.4347 20.5306 14.3987 20.5411 14.3914C20.5515 14.3842 20.58 14.2982 20.6044 14.2005C20.6286 14.1026 20.6728 13.9533 20.7024 13.8684C20.732 13.7837 20.7701 13.6723 20.7868 13.6212C20.8036 13.57 20.8252 13.5224 20.8347 13.5149C20.844 13.5077 20.8684 13.4359 20.8887 13.3556C20.9089 13.2753 20.9645 13.1517 21.012 13.0807C21.0595 13.0099 21.0985 12.9425 21.0985 12.9311C21.0985 12.8741 21.3067 12.7993 21.5612 12.765C21.6792 12.7491 23.6495 12.7657 23.8131 12.784Z" fill="#EF1E24"/>
</g>
<defs>
<clipPath id="clip0">
<rect width="32" height="32" fill="white"/>
</clipPath>
</defs>
</svg>