<svg xmlns="http://www.w3.org/2000/svg" width="32" height="32" viewBox="0 0 32 32" fill="none">
<g clip-path="url(#clip0)">
<circle cx="16" cy="16" r="16" fill="#1C1C1C"/>
<circle cx="16.92" cy="18.08" r="6.92" stroke="#F19021" stroke-width="2"/>
<path d="M17.3108 13.6856C15.0247 13.8277 16.0512 16.8051 18.5785 16.6479C21.0508 16.4942 19.7465 13.5342 17.3108 13.6856Z" fill="#F19021"/>
<path d="M16.5187 4.43405C14.5096 5.95272 14.8588 8.28171 14.8588 8.28171C14.8588 8.28171 13.596 5.0038 11.9561 3C11.7348 5.57955 12.5431 8.9974 12.5431 8.9974C12.5431 8.9974 11.5162 6.87832 9 6.75971C11.0871 7.95919 11.8967 10.1203 12.082 10.7C13.3258 9.93226 14.7481 9.50185 16.2089 9.45121C16.0443 8.91144 15.4592 6.63709 16.5187 4.43405Z" fill="#F19021"/>
</g>
<defs>
<clipPath id="clip0">
<rect width="32" height="32" fill="white"/>
</clipPath>
</defs>
</svg>