<svg xmlns="http://www.w3.org/2000/svg" width="32" height="32" viewBox="0 0 32 32" fill="none">
<g clip-path="url(#clip0_703:1945)">
<ellipse cx="15.827" cy="16" rx="15.827" ry="16" fill="#111111"/>
<path fill-rule="evenodd" clip-rule="evenodd" d="M6 10.2162C6 9.54452 6.54452 9 7.21622 9H25.0541C25.7258 9 26.2703 9.54452 26.2703 10.2162V22.7838C26.2703 23.4555 25.7258 24 25.0541 24H7.21622C6.54452 24 6 23.4555 6 22.7838V10.2162ZM7.62162 11.8378C7.62162 11.1661 8.16614 10.6216 8.83784 10.6216H23.4324C24.1041 10.6216 24.6486 11.1661 24.6486 11.8378V17.9189C24.6486 18.5906 24.1041 19.1351 23.4324 19.1351H8.83784C8.16614 19.1351 7.62162 18.5906 7.62162 17.9189V11.8378ZM8.43243 20.7568C7.98463 20.7568 7.62162 21.1198 7.62162 21.5676C7.62162 22.0154 7.98463 22.3784 8.43243 22.3784H23.8378C24.2856 22.3784 24.6486 22.0154 24.6486 21.5676C24.6486 21.1198 24.2856 20.7568 23.8378 20.7568H8.43243Z" fill="#F67427"/>
<path fill-rule="evenodd" clip-rule="evenodd" d="M13.2972 12.2432H9.24316V17.5135H13.2972V12.2432ZM10.4593 13.4595C10.2354 13.4595 10.0539 13.641 10.0539 13.8649C10.0539 14.0888 10.2354 14.2703 10.4593 14.2703H11.425L10.5021 16.116C10.402 16.3163 10.4832 16.5598 10.6834 16.6599C10.8837 16.76 11.1272 16.6789 11.2273 16.4786L12.4436 14.0462C12.5064 13.9205 12.4997 13.7713 12.4258 13.6517C12.3519 13.5322 12.2215 13.4595 12.081 13.4595H10.4593Z" fill="#F67427"/>
<path fill-rule="evenodd" clip-rule="evenodd" d="M18.1622 12.2432H14.1082V17.5135H18.1622V12.2432ZM15.3244 13.4595C15.1005 13.4595 14.919 13.641 14.919 13.8649C14.919 14.0888 15.1005 14.2703 15.3244 14.2703H16.2901L15.3672 16.116C15.2671 16.3163 15.3483 16.5598 15.5485 16.6599C15.7488 16.76 15.9923 16.6789 16.0925 16.4786L17.3087 14.0462C17.3715 13.9205 17.3648 13.7713 17.2909 13.6517C17.2171 13.5322 17.0866 13.4595 16.9461 13.4595H15.3244Z" fill="#F67427"/>
<path fill-rule="evenodd" clip-rule="evenodd" d="M23.027 12.2432H18.9729V17.5135H23.027V12.2432ZM20.1891 13.4595C19.9652 13.4595 19.7837 13.641 19.7837 13.8649C19.7837 14.0888 19.9652 14.2703 20.1891 14.2703H21.1547L20.2319 16.116C20.1317 16.3163 20.2129 16.5598 20.4132 16.6599C20.6134 16.76 20.8569 16.6789 20.9571 16.4786L22.1733 14.0462C22.2361 13.9205 22.2294 13.7713 22.1555 13.6517C22.0817 13.5322 21.9512 13.4595 21.8107 13.4595H20.1891Z" fill="#F67427"/>
</g>
<defs>
<clipPath id="clip0_703:1945">
<rect width="32" height="32" fill="white"/>
</clipPath>
</defs>
</svg>