<svg xmlns="http://www.w3.org/2000/svg" width="32" height="32" viewBox="0 0 32 32" fill="none">
<g clip-path="url(#clip0)">
<circle cx="16" cy="16" r="16" fill="#33B8D5"/>
<path d="M12.4788 23.9826C10.444 22.887 7.00055 19.3652 7.00055 18.3478C7.00055 17.8 7.27447 17.8391 8.44838 18.6217C11.0005 19.75 18.7397 20.2454 18.7397 19.1696C18.7397 18.0938 18.0005 18.75 14.0005 18.75C6.80055 17.7609 7.00055 18.5043 7.00055 11.9304V7H12.0092C17.4875 7 19.4049 7.54783 21.5962 9.66087C22.8484 10.8348 24.4136 13.2217 24.1397 13.4957C24.0223 13.5739 23.3179 13.3783 22.5353 13.0652C20.8919 12.4 12.4788 11.4992 12.4788 12.8696C12.4788 13.75 14.4353 13.2609 17.5658 13.2609C24.3745 13.2609 24.2179 13.1043 24.2179 19.913V25L19.2484 24.9609C14.7092 24.9609 14.0832 24.8435 12.4788 23.9826Z" fill="white"/>
</g>
<defs>
<clipPath id="clip0">
<rect width="32" height="32" fill="white"/>
</clipPath>
</defs>
</svg>