<svg xmlns="http://www.w3.org/2000/svg" width="32" height="32" viewBox="0 0 32 32" fill="none">
<g clip-path="url(#clip0)">
<circle cx="16" cy="16" r="16" fill="#F96432"/>
<path d="M14.3987 25.1551C14.3987 23.4842 14.2247 23.0665 12.5886 20.8038C11.3354 19.0981 10.5696 18.3671 10.2215 18.5063C8.89873 18.9937 6.11392 19.4462 5.59177 19.2373C5.20886 19.0981 5 18.6108 5 17.8101C5 16.6614 5.10443 16.557 6.32278 16.3481C8.55063 15.9652 8.62025 15.7215 6.84494 14.8165C5.93987 14.3987 5.10443 13.981 5.06962 13.9114C4.72152 13.6677 5.80063 11.3354 6.25316 11.3354C6.98418 11.3354 9.24684 12.5538 10.4652 13.5633L11.5443 14.4684L12.4842 13.7025L13.4589 12.9367L11.6835 12.1709C9.69937 11.3006 7.43671 9.62975 7.43671 9.03797C7.43671 8.58544 8.93354 7.15823 9.42089 7.15823C9.62975 7.15823 9.97785 7.4019 10.2563 7.71519C10.5 7.99367 11.0918 8.4462 11.6139 8.72468L12.5538 9.21203L12.1013 7.57595C11.8924 6.67089 11.788 5.80063 11.9272 5.66139C12.0665 5.52215 12.7627 5.31329 13.4241 5.20886C14.6424 5 14.6424 5 15.0601 6.67089C15.7563 9.56013 16.0348 9.62975 16.6962 7.19304L17.3228 5L18.7152 5.20886C19.481 5.3481 20.1424 5.48734 20.212 5.55696C20.2816 5.59177 20.1076 6.42722 19.8639 7.43671L19.3766 9.21203L20.3165 8.72468C20.8038 8.48101 21.4304 7.99367 21.674 7.71519C21.9525 7.4019 22.3354 7.15823 22.5443 7.15823C23.0316 7.15823 24.4937 8.62025 24.4937 9.10759C24.4937 9.62975 22.1614 11.3354 20.2468 12.1709L18.4715 12.9367L19.4462 13.7025L20.3861 14.4684L21.4652 13.5633C22.6835 12.5538 24.9462 11.3354 25.6772 11.3354C26.1297 11.3354 27.2089 13.6677 26.8608 13.9114C26.8259 13.981 25.9905 14.3987 25.0854 14.8165C23.2753 15.7215 23.3797 15.9652 25.7816 16.3829C27.3481 16.6266 27.3829 16.7658 26.7215 18.9241C26.5475 19.481 24.981 19.4462 22.9272 18.8196C21.9873 18.5411 21.1867 18.3671 21.1867 18.4019C21.1519 18.4367 20.3165 19.5506 19.3418 20.8734C17.6709 23.0665 17.5316 23.4494 17.5316 25.1203V27H15.9652H14.3987V25.1551ZM17.462 15.8956C16.8354 15.3038 16.1741 14.8165 16 14.8165C15.8608 14.8165 15.1994 15.269 14.5728 15.8259L13.4241 16.8354L14.6772 18.5759L15.9304 20.2816L17.288 18.6108L18.6108 16.9399L17.462 15.8956Z" fill="white"/>
</g>
<defs>
<clipPath id="clip0">
<rect width="32" height="32" fill="white"/>
</clipPath>
</defs>
</svg>