<svg xmlns="http://www.w3.org/2000/svg" width="2560" height="1280" fill="none"><mask id="b" mask-type="alpha" maskUnits="userSpaceOnUse" x="0" y="-1" width="2560" height="1281"><path fill="url(#a)" d="M0 0h2560v1280H0z"/></mask><g mask="url(#b)"><path fill="url(#c)" d="M0 0h2560v1280H0z"/><path fill-rule="evenodd" clip-rule="evenodd" d="M-571.089 943.452c112.839-123.898 320.683-54.345 476.877-115.167 124.07-48.314 201.005-194.1 334.014-200.598 140.947-6.886 273.698 71.061 378.3 165.798 105.8 95.822 179.148 223.215 205.972 363.375 26.798 140.01 18.583 292.55-57.346 413.16-71.983 114.35-221.134 137.44-335.043 210.16-125.146 79.89-216.112 231.63-364.551 236.45-153.238 4.97-275.936-115.96-395.63-211.79-129.92-104.02-278.461-203.88-323.565-364.04-46.685-165.76-34.965-370.05 80.972-497.348zM1903.45-214.263c74.75-122.28 238.95-142.355 374.43-189.25 114.55-39.647 228.2-62.132 349.44-61.304 141.57.968 303.79-28.272 408.99 66.489 105.74 95.249 121.53 259.627 110.47 401.43-9.57 122.643-109.16 210.339-166.68 319.065-55.54 104.975-62.5 244.928-164.17 306.339-103.02 62.221-237.73 42.648-352.3 5.6-102.93-33.283-159.71-134.048-246.13-199.109-105.57-79.477-257.95-104.753-315.48-223.682-63.34-130.949-74.41-301.524 1.43-425.578z" fill="#fff" fill-opacity=".04"/></g><defs><radialGradient id="a" cx="0" cy="0" r="1" gradientUnits="userSpaceOnUse" gradientTransform="matrix(0 1563.43 -2000.83 0 1280 700.952)"><stop stop-color="#FB0078"/><stop offset=".637" stop-color="#3E0B77"/><stop offset="1" stop-color="#2F0C78"/></radialGradient><radialGradient id="c" cx="0" cy="0" r="1" gradientUnits="userSpaceOnUse" gradientTransform="matrix(0 1563.43 -2000.83 0 1280 700.952)"><stop stop-color="#FB0078"/><stop offset=".637" stop-color="#3E0B77"/><stop offset="1" stop-color="#2F0C78"/></radialGradient></defs></svg>